<svg xmlns="http://www.w3.org/2000/svg" viewBox="0 0 128 128" role="img" aria-label="sfera">
  <defs>
    <linearGradient id="bg" x1="0" y1="0" x2="1" y2="1">
      <stop offset="0" stop-color="#15181f" />
      <stop offset="0.54" stop-color="#0a0c12" />
      <stop offset="1" stop-color="#030406" />
    </linearGradient>
    <linearGradient id="ring" x1="0" y1="0" x2="1" y2="1">
      <stop offset="0" stop-color="#ffffff" stop-opacity="0.95" />
      <stop offset="0.45" stop-color="#d7d7d7" stop-opacity="0.82" />
      <stop offset="1" stop-color="#8b8b8b" stop-opacity="0.46" />
    </linearGradient>
    <radialGradient id="core" cx="50%" cy="50%" r="50%">
      <stop offset="0" stop-color="#ffffff" stop-opacity="0.95" />
      <stop offset="0.22" stop-color="#efefef" stop-opacity="0.78" />
      <stop offset="0.58" stop-color="#8c8c8c" stop-opacity="0.24" />
      <stop offset="1" stop-color="#8c8c8c" stop-opacity="0" />
    </radialGradient>
    <filter id="outerGlow" x="-60%" y="-60%" width="220%" height="220%">
      <feGaussianBlur stdDeviation="6.4" result="blur" />
      <feColorMatrix
        in="blur"
        type="matrix"
        values="1 0 0 0 0
                0 1 0 0 0
                0 0 1 0 0
                0 0 0 0.65 0"
      />
    </filter>
  </defs>
  <rect width="128" height="128" rx="30" fill="url(#bg)" />
  <circle cx="64" cy="64" r="42" fill="url(#core)" opacity="0.82" />
  <g opacity="0.94">
    <ellipse cx="64" cy="64" rx="42" ry="23" fill="none" stroke="url(#ring)" stroke-width="4.2" />
    <ellipse cx="64" cy="64" rx="24" ry="42" fill="none" stroke="url(#ring)" stroke-width="3.2" opacity="0.82" />
  </g>
  <g filter="url(#outerGlow)" opacity="0.66">
    <path
      d="M39 39.5c5.8-7.4 13.7-11.4 25.4-11.4 10.9 0 19.7 2.8 26.8 7.1l-5.2 8.6c-6-3.2-12.5-5.1-21.2-5.1-6.1 0-10.8 1.1-13.5 3.5-2 1.7-3.1 3.8-3.1 6 0 5.5 6.1 6.8 18.8 7.9 12.4 1 20.3 3 25.1 7.8 3.8 3.6 5.8 8.5 5.8 14.7 0 7.8-3 14.3-8.9 19.2-6.8 5.8-16.4 8.8-29.5 8.8-13.3 0-24.8-3.6-34.2-10l5.8-8.8c8.1 5.4 16.9 8.4 28.9 8.4 7.2 0 12.5-1.3 15.9-4 2.6-2.1 4.1-4.8 4.1-8 0-2.7-.9-4.8-2.7-6.5-2.8-2.7-8-4-18-4.9-13.4-1.2-21.8-3.4-27-8.4-3.8-3.6-5.8-8.2-5.8-14 0-4.8 1.8-9.5 5.5-14Z"
      fill="#ffffff"
    />
  </g>
  <path
    d="M39 39.5c5.8-7.4 13.7-11.4 25.4-11.4 10.9 0 19.7 2.8 26.8 7.1l-5.2 8.6c-6-3.2-12.5-5.1-21.2-5.1-6.1 0-10.8 1.1-13.5 3.5-2 1.7-3.1 3.8-3.1 6 0 5.5 6.1 6.8 18.8 7.9 12.4 1 20.3 3 25.1 7.8 3.8 3.6 5.8 8.5 5.8 14.7 0 7.8-3 14.3-8.9 19.2-6.8 5.8-16.4 8.8-29.5 8.8-13.3 0-24.8-3.6-34.2-10l5.8-8.8c8.1 5.4 16.9 8.4 28.9 8.4 7.2 0 12.5-1.3 15.9-4 2.6-2.1 4.1-4.8 4.1-8 0-2.7-.9-4.8-2.7-6.5-2.8-2.7-8-4-18-4.9-13.4-1.2-21.8-3.4-27-8.4-3.8-3.6-5.8-8.2-5.8-14 0-4.8 1.8-9.5 5.5-14Z"
    fill="none"
    stroke="#ffffff"
    stroke-opacity="0.78"
    stroke-width="1.35"
  />
  <circle cx="92.5" cy="46.5" r="4.2" fill="#ffffff" />
</svg>
